<svg width="440" height="956" viewBox="0 0 440 956" fill="none" xmlns="http://www.w3.org/2000/svg">
<g opacity="0.3">
<path d="M3.65907 40.7773C4.16427 40.7773 4.5738 40.3715 4.5738 39.8711C4.5738 39.3706 4.16427 38.9649 3.65907 38.9649C3.15386 38.9649 2.74427 39.3706 2.74427 39.8711C2.74427 40.3715 3.15386 40.7773 3.65907 40.7773Z" fill="#DBE8E3"/>
<path d="M43.9085 28.091C44.4137 28.091 44.8233 27.6853 44.8233 27.1849C44.8233 26.6844 44.4137 26.2787 43.9085 26.2787C43.4033 26.2787 42.9937 26.6844 42.9937 27.1849C42.9937 27.6853 43.4033 28.091 43.9085 28.091Z" fill="#DBE8E3"/>
<path d="M86.9023 19.0294C87.4075 19.0294 87.8171 18.6237 87.8171 18.1233C87.8171 17.6228 87.4075 17.217 86.9023 17.217C86.3971 17.217 85.9876 17.6228 85.9876 18.1233C85.9876 18.6237 86.3971 19.0294 86.9023 19.0294Z" fill="#DBE8E3"/>
<path d="M131.726 11.7801C132.231 11.7801 132.64 11.3744 132.64 10.8739C132.64 10.3735 132.231 9.96783 131.726 9.96783C131.22 9.96783 130.811 10.3735 130.811 10.8739C130.811 11.3744 131.22 11.7801 131.726 11.7801Z" fill="#DBE8E3"/>
<path d="M179.293 6.34322C179.798 6.34322 180.208 5.93743 180.208 5.43697C180.208 4.93652 179.798 4.53085 179.293 4.53085C178.788 4.53085 178.378 4.93652 178.378 5.43697C178.378 5.93743 178.788 6.34322 179.293 6.34322Z" fill="#DBE8E3"/>
<path d="M226.861 1.81237C227.366 1.81237 227.776 1.4067 227.776 0.906245C227.776 0.40579 227.366 0 226.861 0C226.356 0 225.946 0.40579 225.946 0.906245C225.946 1.4067 226.356 1.81237 226.861 1.81237Z" fill="#DBE8E3"/>
<path d="M279.002 1.81237C279.507 1.81237 279.917 1.4067 279.917 0.906245C279.917 0.40579 279.507 0 279.002 0C278.497 0 278.087 0.40579 278.087 0.906245C278.087 1.4067 278.497 1.81237 279.002 1.81237Z" fill="#DBE8E3"/>
<path d="M338.462 8.15546C338.967 8.15546 339.376 7.74979 339.376 7.24934C339.376 6.74889 338.967 6.34322 338.462 6.34322C337.956 6.34322 337.547 6.74889 337.547 7.24934C337.547 7.74979 337.956 8.15546 338.462 8.15546Z" fill="#DBE8E3"/>
<path d="M402.495 19.9355C403 19.9355 403.41 19.5299 403.41 19.0294C403.41 18.529 403 18.1233 402.495 18.1233C401.99 18.1233 401.58 18.529 401.58 19.0294C401.58 19.5299 401.99 19.9355 402.495 19.9355Z" fill="#DBE8E3"/>
<path d="M2.74427 91.5223C3.24947 91.5223 3.65907 91.1166 3.65907 90.6162C3.65907 90.1157 3.24947 89.7099 2.74427 89.7099C2.23906 89.7099 1.82953 90.1157 1.82953 90.6162C1.82953 91.1166 2.23906 91.5223 2.74427 91.5223Z" fill="#DBE8E3"/>
<path d="M50.3119 86.0853C50.8171 86.0853 51.2266 85.6797 51.2266 85.1792C51.2266 84.6788 50.8171 84.273 50.3119 84.273C49.8067 84.273 49.3971 84.6788 49.3971 85.1792C49.3971 85.6797 49.8067 86.0853 50.3119 86.0853Z" fill="#DBE8E3"/>
<path d="M95.1352 78.836C95.6404 78.836 96.0499 78.4303 96.0499 77.9299C96.0499 77.4294 95.6404 77.0238 95.1352 77.0238C94.63 77.0238 94.2204 77.4294 94.2204 77.9299C94.2204 78.4303 94.63 78.836 95.1352 78.836Z" fill="#DBE8E3"/>
<path d="M138.129 69.7744C138.634 69.7744 139.044 69.3688 139.044 68.8683C139.044 68.3678 138.634 67.9622 138.129 67.9622C137.624 67.9622 137.214 68.3678 137.214 68.8683C137.214 69.3688 137.624 69.7744 138.129 69.7744Z" fill="#DBE8E3"/>
<path d="M178.378 57.0882C178.884 57.0882 179.293 56.6824 179.293 56.182C179.293 55.6815 178.884 55.2759 178.378 55.2759C177.873 55.2759 177.464 55.6815 177.464 56.182C177.464 56.6824 177.873 57.0882 178.378 57.0882Z" fill="#DBE8E3"/>
<path d="M217.713 44.4019C218.218 44.4019 218.628 43.9962 218.628 43.4958C218.628 42.9953 218.218 42.5895 217.713 42.5895C217.208 42.5895 216.798 42.9953 216.798 43.4958C216.798 43.9962 217.208 44.4019 217.713 44.4019Z" fill="#DBE8E3"/>
<path d="M261.622 36.2465C262.127 36.2465 262.536 35.8408 262.536 35.3403C262.536 34.8399 262.127 34.4342 261.622 34.4342C261.116 34.4342 260.707 34.8399 260.707 35.3403C260.707 35.8408 261.116 36.2465 261.622 36.2465Z" fill="#DBE8E3"/>
<path d="M316.507 38.0588C317.012 38.0588 317.422 37.6532 317.422 37.1527C317.422 36.6522 317.012 36.2465 316.507 36.2465C316.002 36.2465 315.593 36.6522 315.593 37.1527C315.593 37.6532 316.002 38.0588 316.507 38.0588Z" fill="#DBE8E3"/>
<path d="M378.711 48.0265C379.216 48.0265 379.626 47.6209 379.626 47.1204C379.626 46.6199 379.216 46.2143 378.711 46.2143C378.206 46.2143 377.796 46.6199 377.796 47.1204C377.796 47.6209 378.206 48.0265 378.711 48.0265Z" fill="#DBE8E3"/>
<path d="M52.1414 139.549C52.6466 139.549 53.0561 139.143 53.0561 138.643C53.0561 138.142 52.6466 137.736 52.1414 137.736C51.6362 137.736 51.2266 138.142 51.2266 138.643C51.2266 139.143 51.6362 139.549 52.1414 139.549Z" fill="#DBE8E3"/>
<path d="M104.283 139.549C104.788 139.549 105.197 139.143 105.197 138.643C105.197 138.142 104.788 137.736 104.283 137.736C103.778 137.736 103.368 138.142 103.368 138.643C103.368 139.143 103.778 139.549 104.283 139.549Z" fill="#DBE8E3"/>
<path d="M149.106 132.299C149.611 132.299 150.021 131.894 150.021 131.393C150.021 130.893 149.611 130.487 149.106 130.487C148.601 130.487 148.191 130.893 148.191 131.393C148.191 131.894 148.601 132.299 149.106 132.299Z" fill="#DBE8E3"/>
<path d="M187.526 117.801C188.031 117.801 188.441 117.395 188.441 116.895C188.441 116.394 188.031 115.989 187.526 115.989C187.021 115.989 186.611 116.394 186.611 116.895C186.611 117.395 187.021 117.801 187.526 117.801Z" fill="#DBE8E3"/>
<path d="M221.372 99.6778C221.877 99.6778 222.287 99.272 222.287 98.7715C222.287 98.2711 221.877 97.8654 221.372 97.8654C220.867 97.8654 220.457 98.2711 220.457 98.7715C220.457 99.272 220.867 99.6778 221.372 99.6778Z" fill="#DBE8E3"/>
<path d="M259.792 86.0853C260.297 86.0853 260.707 85.6797 260.707 85.1792C260.707 84.6788 260.297 84.273 259.792 84.273C259.287 84.273 258.877 84.6788 258.877 85.1792C258.877 85.6797 259.287 86.0853 259.792 86.0853Z" fill="#DBE8E3"/>
<path d="M308.274 81.5545C308.78 81.5545 309.189 81.1488 309.189 80.6484C309.189 80.1479 308.78 79.7422 308.274 79.7422C307.769 79.7422 307.36 80.1479 307.36 80.6484C307.36 81.1488 307.769 81.5545 308.274 81.5545Z" fill="#DBE8E3"/>
<path d="M366.819 87.8977C367.324 87.8977 367.734 87.4919 367.734 86.9915C367.734 86.491 367.324 86.0853 366.819 86.0853C366.314 86.0853 365.904 86.491 365.904 86.9915C365.904 87.4919 366.314 87.8977 366.819 87.8977Z" fill="#DBE8E3"/>
<path d="M432.682 100.584C433.187 100.584 433.597 100.178 433.597 99.6778C433.597 99.1773 433.187 98.7715 432.682 98.7715C432.177 98.7715 431.767 99.1773 431.767 99.6778C431.767 100.178 432.177 100.584 432.682 100.584Z" fill="#DBE8E3"/>
<path d="M53.0561 193.012C53.5614 193.012 53.9709 192.607 53.9709 192.106C53.9709 191.606 53.5614 191.2 53.0561 191.2C52.5509 191.2 52.1414 191.606 52.1414 192.106C52.1414 192.607 52.5509 193.012 53.0561 193.012Z" fill="#DBE8E3"/>
<path d="M114.345 202.074C114.85 202.074 115.26 201.668 115.26 201.168C115.26 200.667 114.85 200.262 114.345 200.262C113.84 200.262 113.43 200.667 113.43 201.168C113.43 201.668 113.84 202.074 114.345 202.074Z" fill="#DBE8E3"/>
<path d="M164.657 200.262C165.162 200.262 165.572 199.856 165.572 199.355C165.572 198.855 165.162 198.449 164.657 198.449C164.152 198.449 163.742 198.855 163.742 199.355C163.742 199.856 164.152 200.262 164.657 200.262Z" fill="#DBE8E3"/>
<path d="M204.906 187.575C205.412 187.575 205.821 187.17 205.821 186.669C205.821 186.169 205.412 185.763 204.906 185.763C204.401 185.763 203.992 186.169 203.992 186.669C203.992 187.17 204.401 187.575 204.906 187.575Z" fill="#DBE8E3"/>
<path d="M236.923 167.64C237.428 167.64 237.838 167.234 237.838 166.734C237.838 166.233 237.428 165.827 236.923 165.827C236.418 165.827 236.008 166.233 236.008 166.734C236.008 167.234 236.418 167.64 236.923 167.64Z" fill="#DBE8E3"/>
<path d="M270.769 149.517C271.274 149.517 271.684 149.111 271.684 148.61C271.684 148.11 271.274 147.704 270.769 147.704C270.264 147.704 269.854 148.11 269.854 148.61C269.854 149.111 270.264 149.517 270.769 149.517Z" fill="#DBE8E3"/>
<path d="M314.678 140.455C315.183 140.455 315.593 140.049 315.593 139.549C315.593 139.048 315.183 138.643 314.678 138.643C314.173 138.643 313.763 139.048 313.763 139.549C313.763 140.049 314.173 140.455 314.678 140.455Z" fill="#DBE8E3"/>
<path d="M367.734 141.361C368.239 141.361 368.649 140.955 368.649 140.455C368.649 139.954 368.239 139.549 367.734 139.549C367.229 139.549 366.819 139.954 366.819 140.455C366.819 140.955 367.229 141.361 367.734 141.361Z" fill="#DBE8E3"/>
<path d="M429.938 150.423C430.443 150.423 430.852 150.017 430.852 149.517C430.852 149.016 430.443 148.61 429.938 148.61C429.432 148.61 429.023 149.016 429.023 149.517C429.023 150.017 429.432 150.423 429.938 150.423Z" fill="#DBE8E3"/>
<path d="M56.7152 248.288C57.2204 248.288 57.6299 247.883 57.6299 247.382C57.6299 246.882 57.2204 246.476 56.7152 246.476C56.21 246.476 55.8004 246.882 55.8004 247.382C55.8004 247.883 56.21 248.288 56.7152 248.288Z" fill="#DBE8E3"/>
<path d="M124.408 263.693C124.913 263.693 125.322 263.287 125.322 262.787C125.322 262.286 124.913 261.881 124.408 261.881C123.902 261.881 123.493 262.286 123.493 262.787C123.493 263.287 123.902 263.693 124.408 263.693Z" fill="#DBE8E3"/>
<path d="M180.208 267.318C180.713 267.318 181.123 266.912 181.123 266.411C181.123 265.911 180.713 265.505 180.208 265.505C179.703 265.505 179.293 265.911 179.293 266.411C179.293 266.912 179.703 267.318 180.208 267.318Z" fill="#DBE8E3"/>
<path d="M224.116 258.256C224.622 258.256 225.031 257.85 225.031 257.35C225.031 256.849 224.622 256.444 224.116 256.444C223.611 256.444 223.202 256.849 223.202 257.35C223.202 257.85 223.611 258.256 224.116 258.256Z" fill="#DBE8E3"/>
<path d="M257.963 240.133C258.468 240.133 258.877 239.727 258.877 239.227C258.877 238.726 258.468 238.32 257.963 238.32C257.457 238.32 257.048 238.726 257.048 239.227C257.048 239.727 257.457 240.133 257.963 240.133Z" fill="#DBE8E3"/>
<path d="M289.979 220.197C290.484 220.197 290.894 219.791 290.894 219.291C290.894 218.79 290.484 218.385 289.979 218.385C289.474 218.385 289.064 218.79 289.064 219.291C289.064 219.791 289.474 220.197 289.979 220.197Z" fill="#DBE8E3"/>
<path d="M329.314 206.605C329.819 206.605 330.229 206.199 330.229 205.699C330.229 205.198 329.819 204.792 329.314 204.792C328.809 204.792 328.399 205.198 328.399 205.699C328.399 206.199 328.809 206.605 329.314 206.605Z" fill="#DBE8E3"/>
<path d="M377.796 202.98C378.301 202.98 378.711 202.574 378.711 202.074C378.711 201.573 378.301 201.168 377.796 201.168C377.291 201.168 376.882 201.573 376.882 202.074C376.882 202.574 377.291 202.98 377.796 202.98Z" fill="#DBE8E3"/>
<path d="M432.682 204.792C433.187 204.792 433.597 204.387 433.597 203.886C433.597 203.386 433.187 202.98 432.682 202.98C432.177 202.98 431.767 203.386 431.767 203.886C431.767 204.387 432.177 204.792 432.682 204.792Z" fill="#DBE8E3"/>
<path d="M58.5447 302.658C59.0499 302.658 59.4595 302.252 59.4595 301.752C59.4595 301.251 59.0499 300.846 58.5447 300.846C58.0395 300.846 57.6299 301.251 57.6299 301.752C57.6299 302.252 58.0395 302.658 58.5447 302.658Z" fill="#DBE8E3"/>
<path d="M128.067 319.875C128.572 319.875 128.981 319.469 128.981 318.969C128.981 318.468 128.572 318.063 128.067 318.063C127.561 318.063 127.152 318.468 127.152 318.969C127.152 319.469 127.561 319.875 128.067 319.875Z" fill="#DBE8E3"/>
<path d="M188.441 328.03C188.946 328.03 189.356 327.625 189.356 327.124C189.356 326.624 188.946 326.218 188.441 326.218C187.936 326.218 187.526 326.624 187.526 327.124C187.526 327.625 187.936 328.03 188.441 328.03Z" fill="#DBE8E3"/>
<path d="M237.838 324.406C238.343 324.406 238.753 324 238.753 323.5C238.753 322.999 238.343 322.593 237.838 322.593C237.333 322.593 236.923 322.999 236.923 323.5C236.923 324 237.333 324.406 237.838 324.406Z" fill="#DBE8E3"/>
<path d="M275.343 309.907C275.848 309.907 276.258 309.501 276.258 309.001C276.258 308.5 275.848 308.095 275.343 308.095C274.838 308.095 274.428 308.5 274.428 309.001C274.428 309.501 274.838 309.907 275.343 309.907Z" fill="#DBE8E3"/>
<path d="M308.274 290.878C308.78 290.878 309.189 290.472 309.189 289.972C309.189 289.471 308.78 289.065 308.274 289.065C307.769 289.065 307.36 289.471 307.36 289.972C307.36 290.472 307.769 290.878 308.274 290.878Z" fill="#DBE8E3"/>
<path d="M344.865 274.567C345.37 274.567 345.78 274.161 345.78 273.661C345.78 273.16 345.37 272.755 344.865 272.755C344.36 272.755 343.95 273.16 343.95 273.661C343.95 274.161 344.36 274.567 344.865 274.567Z" fill="#DBE8E3"/>
<path d="M386.029 263.693C386.534 263.693 386.944 263.287 386.944 262.787C386.944 262.286 386.534 261.881 386.029 261.881C385.524 261.881 385.114 262.286 385.114 262.787C385.114 263.287 385.524 263.693 386.029 263.693Z" fill="#DBE8E3"/>
<path d="M434.511 259.162C435.017 259.162 435.426 258.756 435.426 258.256C435.426 257.755 435.017 257.35 434.511 257.35C434.006 257.35 433.597 257.755 433.597 258.256C433.597 258.756 434.006 259.162 434.511 259.162Z" fill="#DBE8E3"/>
<path d="M58.5447 354.309C59.0499 354.309 59.4595 353.903 59.4595 353.403C59.4595 352.902 59.0499 352.497 58.5447 352.497C58.0395 352.497 57.6299 352.902 57.6299 353.403C57.6299 353.903 58.0395 354.309 58.5447 354.309Z" fill="#DBE8E3"/>
<path d="M126.237 369.714C126.742 369.714 127.152 369.308 127.152 368.808C127.152 368.307 126.742 367.901 126.237 367.901C125.732 367.901 125.322 368.307 125.322 368.808C125.322 369.308 125.732 369.714 126.237 369.714Z" fill="#DBE8E3"/>
<path d="M188.441 379.682C188.946 379.682 189.356 379.276 189.356 378.775C189.356 378.275 188.946 377.869 188.441 377.869C187.936 377.869 187.526 378.275 187.526 378.775C187.526 379.276 187.936 379.682 188.441 379.682Z" fill="#DBE8E3"/>
<path d="M241.497 379.682C242.002 379.682 242.412 379.276 242.412 378.775C242.412 378.275 242.002 377.869 241.497 377.869C240.992 377.869 240.582 378.275 240.582 378.775C240.582 379.276 240.992 379.682 241.497 379.682Z" fill="#DBE8E3"/>
<path d="M282.661 368.808C283.166 368.808 283.576 368.402 283.576 367.901C283.576 367.401 283.166 366.995 282.661 366.995C282.156 366.995 281.746 367.401 281.746 367.901C281.746 368.402 282.156 368.808 282.661 368.808Z" fill="#DBE8E3"/>
<path d="M318.337 352.497C318.842 352.497 319.252 352.091 319.252 351.591C319.252 351.09 318.842 350.684 318.337 350.684C317.832 350.684 317.422 351.09 317.422 351.591C317.422 352.091 317.832 352.497 318.337 352.497Z" fill="#DBE8E3"/>
<path d="M352.183 333.467C352.688 333.467 353.098 333.062 353.098 332.561C353.098 332.061 352.688 331.655 352.183 331.655C351.678 331.655 351.268 332.061 351.268 332.561C351.268 333.062 351.678 333.467 352.183 333.467Z" fill="#DBE8E3"/>
<path d="M386.944 316.25C387.449 316.25 387.859 315.845 387.859 315.344C387.859 314.844 387.449 314.438 386.944 314.438C386.439 314.438 386.029 314.844 386.029 315.344C386.029 315.845 386.439 316.25 386.944 316.25Z" fill="#DBE8E3"/>
<path d="M429.023 305.376C429.528 305.376 429.938 304.971 429.938 304.47C429.938 303.97 429.528 303.564 429.023 303.564C428.518 303.564 428.108 303.97 428.108 304.47C428.108 304.971 428.518 305.376 429.023 305.376Z" fill="#DBE8E3"/>
<path d="M0.914798 401.429C1.42 401.429 1.82953 401.024 1.82953 400.523C1.82953 400.023 1.42 399.617 0.914798 399.617C0.409594 399.617 0 400.023 0 400.523C0 401.024 0.409594 401.429 0.914798 401.429Z" fill="#DBE8E3"/>
<path d="M59.4595 406.866C59.9647 406.866 60.3742 406.461 60.3742 405.96C60.3742 405.46 59.9647 405.054 59.4595 405.054C58.9543 405.054 58.5447 405.46 58.5447 405.96C58.5447 406.461 58.9543 406.866 59.4595 406.866Z" fill="#DBE8E3"/>
<path d="M123.493 418.647C123.998 418.647 124.408 418.241 124.408 417.74C124.408 417.24 123.998 416.834 123.493 416.834C122.988 416.834 122.578 417.24 122.578 417.74C122.578 418.241 122.988 418.647 123.493 418.647Z" fill="#DBE8E3"/>
<path d="M184.782 427.708C185.287 427.708 185.697 427.302 185.697 426.802C185.697 426.302 185.287 425.896 184.782 425.896C184.277 425.896 183.867 426.302 183.867 426.802C183.867 427.302 184.277 427.708 184.782 427.708Z" fill="#DBE8E3"/>
<path d="M238.753 428.614C239.258 428.614 239.667 428.209 239.667 427.708C239.667 427.208 239.258 426.802 238.753 426.802C238.247 426.802 237.838 427.208 237.838 427.708C237.838 428.209 238.247 428.614 238.753 428.614Z" fill="#DBE8E3"/>
<path d="M282.661 420.459C283.166 420.459 283.576 420.053 283.576 419.553C283.576 419.052 283.166 418.647 282.661 418.647C282.156 418.647 281.746 419.052 281.746 419.553C281.746 420.053 282.156 420.459 282.661 420.459Z" fill="#DBE8E3"/>
<path d="M318.337 404.148C318.842 404.148 319.252 403.742 319.252 403.242C319.252 402.741 318.842 402.336 318.337 402.336C317.832 402.336 317.422 402.741 317.422 403.242C317.422 403.742 317.832 404.148 318.337 404.148Z" fill="#DBE8E3"/>
<path d="M349.439 382.4C349.944 382.4 350.353 381.994 350.353 381.494C350.353 380.993 349.944 380.588 349.439 380.588C348.933 380.588 348.524 380.993 348.524 381.494C348.524 381.994 348.933 382.4 349.439 382.4Z" fill="#DBE8E3"/>
<path d="M380.541 361.558C381.046 361.558 381.455 361.153 381.455 360.652C381.455 360.152 381.046 359.746 380.541 359.746C380.035 359.746 379.626 360.152 379.626 360.652C379.626 361.153 380.035 361.558 380.541 361.558Z" fill="#DBE8E3"/>
<path d="M419.875 347.966C420.381 347.966 420.79 347.56 420.79 347.06C420.79 346.559 420.381 346.154 419.875 346.154C419.37 346.154 418.961 346.559 418.961 347.06C418.961 347.56 419.37 347.966 419.875 347.966Z" fill="#DBE8E3"/>
<path d="M8.23287 461.236C8.73807 461.236 9.1476 460.83 9.1476 460.33C9.1476 459.829 8.73807 459.424 8.23287 459.424C7.72766 459.424 7.31807 459.829 7.31807 460.33C7.31807 460.83 7.72766 461.236 8.23287 461.236Z" fill="#DBE8E3"/>
<path d="M63.1185 463.048C63.6237 463.048 64.0333 462.643 64.0333 462.142C64.0333 461.642 63.6237 461.236 63.1185 461.236C62.6133 461.236 62.2038 461.642 62.2038 462.142C62.2038 462.643 62.6133 463.048 63.1185 463.048Z" fill="#DBE8E3"/>
<path d="M122.578 470.298C123.083 470.298 123.493 469.892 123.493 469.392C123.493 468.891 123.083 468.485 122.578 468.485C122.073 468.485 121.663 468.891 121.663 469.392C121.663 469.892 122.073 470.298 122.578 470.298Z" fill="#DBE8E3"/>
<path d="M181.123 476.641C181.628 476.641 182.037 476.235 182.037 475.735C182.037 475.234 181.628 474.828 181.123 474.828C180.618 474.828 180.208 475.234 180.208 475.735C180.208 476.235 180.618 476.641 181.123 476.641Z" fill="#DBE8E3"/>
<path d="M235.094 477.547C235.599 477.547 236.008 477.141 236.008 476.641C236.008 476.14 235.599 475.735 235.094 475.735C234.588 475.735 234.179 476.14 234.179 476.641C234.179 477.141 234.588 477.547 235.094 477.547Z" fill="#DBE8E3"/>
<path d="M279.002 469.392C279.507 469.392 279.917 468.986 279.917 468.485C279.917 467.985 279.507 467.579 279.002 467.579C278.497 467.579 278.087 467.985 278.087 468.485C278.087 468.986 278.497 469.392 279.002 469.392Z" fill="#DBE8E3"/>
<path d="M312.848 451.268C313.353 451.268 313.763 450.863 313.763 450.362C313.763 449.862 313.353 449.456 312.848 449.456C312.343 449.456 311.933 449.862 311.933 450.362C311.933 450.863 312.343 451.268 312.848 451.268Z" fill="#DBE8E3"/>
<path d="M342.121 427.708C342.626 427.708 343.035 427.302 343.035 426.802C343.035 426.302 342.626 425.896 342.121 425.896C341.615 425.896 341.206 426.302 341.206 426.802C341.206 427.302 341.615 427.708 342.121 427.708Z" fill="#DBE8E3"/>
<path d="M373.223 406.866C373.728 406.866 374.137 406.461 374.137 405.96C374.137 405.46 373.728 405.054 373.223 405.054C372.717 405.054 372.308 405.46 372.308 405.96C372.308 406.461 372.717 406.866 373.223 406.866Z" fill="#DBE8E3"/>
<path d="M414.387 395.086C414.892 395.086 415.302 394.681 415.302 394.18C415.302 393.68 414.892 393.274 414.387 393.274C413.882 393.274 413.472 393.68 413.472 394.18C413.472 394.681 413.882 395.086 414.387 395.086Z" fill="#DBE8E3"/>
<path d="M10.0624 532.823C10.5676 532.823 10.9771 532.417 10.9771 531.917C10.9771 531.416 10.5676 531.01 10.0624 531.01C9.5572 531.01 9.1476 531.416 9.1476 531.917C9.1476 532.417 9.5572 532.823 10.0624 532.823Z" fill="#DBE8E3"/>
<path d="M61.289 531.01C61.7942 531.01 62.2038 530.605 62.2038 530.104C62.2038 529.604 61.7942 529.198 61.289 529.198C60.7838 529.198 60.3742 529.604 60.3742 530.104C60.3742 530.605 60.7838 531.01 61.289 531.01Z" fill="#DBE8E3"/>
<path d="M111.601 529.198C112.106 529.198 112.516 528.792 112.516 528.292C112.516 527.792 112.106 527.386 111.601 527.386C111.096 527.386 110.686 527.792 110.686 528.292C110.686 528.792 111.096 529.198 111.601 529.198Z" fill="#DBE8E3"/>
<path d="M160.083 525.573C160.588 525.573 160.998 525.168 160.998 524.667C160.998 524.167 160.588 523.761 160.083 523.761C159.578 523.761 159.168 524.167 159.168 524.667C159.168 525.168 159.578 525.573 160.083 525.573Z" fill="#DBE8E3"/>
<path d="M207.651 520.137C208.156 520.137 208.566 519.731 208.566 519.23C208.566 518.73 208.156 518.324 207.651 518.324C207.146 518.324 206.736 518.73 206.736 519.23C206.736 519.731 207.146 520.137 207.651 520.137Z" fill="#DBE8E3"/>
<path d="M251.559 511.981C252.064 511.981 252.474 511.575 252.474 511.075C252.474 510.574 252.064 510.169 251.559 510.169C251.054 510.169 250.645 510.574 250.645 511.075C250.645 511.575 251.054 511.981 251.559 511.981Z" fill="#DBE8E3"/>
<path d="M294.553 502.919C295.058 502.919 295.468 502.514 295.468 502.013C295.468 501.513 295.058 501.107 294.553 501.107C294.048 501.107 293.638 501.513 293.638 502.013C293.638 502.514 294.048 502.919 294.553 502.919Z" fill="#DBE8E3"/>
<path d="M337.547 492.952C338.052 492.952 338.462 492.546 338.462 492.046C338.462 491.545 338.052 491.139 337.547 491.139C337.042 491.139 336.632 491.545 336.632 492.046C336.632 492.546 337.042 492.952 337.547 492.952Z" fill="#DBE8E3"/>
<path d="M380.541 483.89C381.046 483.89 381.455 483.484 381.455 482.984C381.455 482.483 381.046 482.078 380.541 482.078C380.035 482.078 379.626 482.483 379.626 482.984C379.626 483.484 380.035 483.89 380.541 483.89Z" fill="#DBE8E3"/>
<path d="M429.938 480.265C430.443 480.265 430.852 479.86 430.852 479.359C430.852 478.859 430.443 478.453 429.938 478.453C429.432 478.453 429.023 478.859 429.023 479.359C429.023 479.86 429.432 480.265 429.938 480.265Z" fill="#DBE8E3"/>
<path d="M10.9771 585.38C11.4823 585.38 11.8919 584.974 11.8919 584.474C11.8919 583.974 11.4823 583.568 10.9771 583.568C10.4719 583.568 10.0624 583.974 10.0624 584.474C10.0624 584.974 10.4719 585.38 10.9771 585.38Z" fill="#DBE8E3"/>
<path d="M64.948 586.286C65.4532 586.286 65.8628 585.881 65.8628 585.38C65.8628 584.88 65.4532 584.474 64.948 584.474C64.4428 584.474 64.0333 584.88 64.0333 585.38C64.0333 585.881 64.4428 586.286 64.948 586.286Z" fill="#DBE8E3"/>
<path d="M119.834 589.005C120.339 589.005 120.748 588.599 120.748 588.099C120.748 587.598 120.339 587.192 119.834 587.192C119.328 587.192 118.919 587.598 118.919 588.099C118.919 588.599 119.328 589.005 119.834 589.005Z" fill="#DBE8E3"/>
<path d="M173.805 590.817C174.31 590.817 174.719 590.411 174.719 589.911C174.719 589.41 174.31 589.005 173.805 589.005C173.299 589.005 172.89 589.41 172.89 589.911C172.89 590.411 173.299 590.817 173.805 590.817Z" fill="#DBE8E3"/>
<path d="M224.116 588.099C224.622 588.099 225.031 587.693 225.031 587.192C225.031 586.692 224.622 586.286 224.116 586.286C223.611 586.286 223.202 586.692 223.202 587.192C223.202 587.693 223.611 588.099 224.116 588.099Z" fill="#DBE8E3"/>
<path d="M269.854 581.755C270.36 581.755 270.769 581.35 270.769 580.849C270.769 580.349 270.36 579.943 269.854 579.943C269.349 579.943 268.94 580.349 268.94 580.849C268.94 581.35 269.349 581.755 269.854 581.755Z" fill="#DBE8E3"/>
<path d="M310.104 569.975C310.609 569.975 311.019 569.57 311.019 569.069C311.019 568.569 310.609 568.163 310.104 568.163C309.599 568.163 309.189 568.569 309.189 569.069C309.189 569.57 309.599 569.975 310.104 569.975Z" fill="#DBE8E3"/>
<path d="M347.609 554.571C348.114 554.571 348.524 554.165 348.524 553.664C348.524 553.164 348.114 552.758 347.609 552.758C347.104 552.758 346.694 553.164 346.694 553.664C346.694 554.165 347.104 554.571 347.609 554.571Z" fill="#DBE8E3"/>
<path d="M383.285 538.26C383.79 538.26 384.2 537.854 384.2 537.354C384.2 536.853 383.79 536.447 383.285 536.447C382.78 536.447 382.37 536.853 382.37 537.354C382.37 537.854 382.78 538.26 383.285 538.26Z" fill="#DBE8E3"/>
<path d="M427.193 530.104C427.699 530.104 428.108 529.699 428.108 529.198C428.108 528.698 427.699 528.292 427.193 528.292C426.688 528.292 426.279 528.698 426.279 529.198C426.279 529.699 426.688 530.104 427.193 530.104Z" fill="#DBE8E3"/>
<path d="M4.5738 631.594C5.07901 631.594 5.4886 631.189 5.4886 630.688C5.4886 630.188 5.07901 629.782 4.5738 629.782C4.0686 629.782 3.65907 630.188 3.65907 630.688C3.65907 631.189 4.0686 631.594 4.5738 631.594Z" fill="#DBE8E3"/>
<path d="M61.289 635.219C61.7942 635.219 62.2038 634.813 62.2038 634.313C62.2038 633.812 61.7942 633.407 61.289 633.407C60.7838 633.407 60.3742 633.812 60.3742 634.313C60.3742 634.813 60.7838 635.219 61.289 635.219Z" fill="#DBE8E3"/>
<path d="M118.004 639.75C118.509 639.75 118.919 639.344 118.919 638.844C118.919 638.343 118.509 637.937 118.004 637.937C117.499 637.937 117.089 638.343 117.089 638.844C117.089 639.344 117.499 639.75 118.004 639.75Z" fill="#DBE8E3"/>
<path d="M173.805 643.374C174.31 643.374 174.719 642.969 174.719 642.468C174.719 641.968 174.31 641.562 173.805 641.562C173.299 641.562 172.89 641.968 172.89 642.468C172.89 642.969 173.299 643.374 173.805 643.374Z" fill="#DBE8E3"/>
<path d="M225.946 642.468C226.451 642.468 226.861 642.062 226.861 641.562C226.861 641.062 226.451 640.656 225.946 640.656C225.441 640.656 225.031 641.062 225.031 641.562C225.031 642.062 225.441 642.468 225.946 642.468Z" fill="#DBE8E3"/>
<path d="M273.514 637.937C274.019 637.937 274.428 637.532 274.428 637.031C274.428 636.531 274.019 636.125 273.514 636.125C273.008 636.125 272.599 636.531 272.599 637.031C272.599 637.532 273.008 637.937 273.514 637.937Z" fill="#DBE8E3"/>
<path d="M314.678 627.064C315.183 627.064 315.593 626.658 315.593 626.157C315.593 625.657 315.183 625.251 314.678 625.251C314.173 625.251 313.763 625.657 313.763 626.157C313.763 626.658 314.173 627.064 314.678 627.064Z" fill="#DBE8E3"/>
<path d="M351.268 610.753C351.773 610.753 352.183 610.347 352.183 609.846C352.183 609.346 351.773 608.94 351.268 608.94C350.763 608.94 350.353 609.346 350.353 609.846C350.353 610.347 350.763 610.753 351.268 610.753Z" fill="#DBE8E3"/>
<path d="M386.029 593.536C386.534 593.536 386.944 593.13 386.944 592.629C386.944 592.129 386.534 591.723 386.029 591.723C385.524 591.723 385.114 592.129 385.114 592.629C385.114 593.13 385.524 593.536 386.029 593.536Z" fill="#DBE8E3"/>
<path d="M427.193 582.662C427.699 582.662 428.108 582.256 428.108 581.755C428.108 581.255 427.699 580.849 427.193 580.849C426.688 580.849 426.279 581.255 426.279 581.755C426.279 582.256 426.688 582.662 427.193 582.662Z" fill="#DBE8E3"/>
<path d="M49.3971 675.996C49.9023 675.996 50.3119 675.591 50.3119 675.09C50.3119 674.59 49.9023 674.184 49.3971 674.184C48.8919 674.184 48.4823 674.59 48.4823 675.09C48.4823 675.591 48.8919 675.996 49.3971 675.996Z" fill="#DBE8E3"/>
<path d="M106.112 679.621C106.617 679.621 107.027 679.215 107.027 678.715C107.027 678.214 106.617 677.809 106.112 677.809C105.607 677.809 105.197 678.214 105.197 678.715C105.197 679.215 105.607 679.621 106.112 679.621Z" fill="#DBE8E3"/>
<path d="M160.998 682.339C161.503 682.339 161.913 681.934 161.913 681.433C161.913 680.933 161.503 680.527 160.998 680.527C160.493 680.527 160.083 680.933 160.083 681.433C160.083 681.934 160.493 682.339 160.998 682.339Z" fill="#DBE8E3"/>
<path d="M213.139 681.433C213.645 681.433 214.054 681.027 214.054 680.527C214.054 680.027 213.645 679.621 213.139 679.621C212.634 679.621 212.225 680.027 212.225 680.527C212.225 681.027 212.634 681.433 213.139 681.433Z" fill="#DBE8E3"/>
<path d="M263.451 679.621C263.956 679.621 264.366 679.215 264.366 678.715C264.366 678.214 263.956 677.809 263.451 677.809C262.946 677.809 262.536 678.214 262.536 678.715C262.536 679.215 262.946 679.621 263.451 679.621Z" fill="#DBE8E3"/>
<path d="M309.189 673.278C309.694 673.278 310.104 672.872 310.104 672.372C310.104 671.871 309.694 671.465 309.189 671.465C308.684 671.465 308.274 671.871 308.274 672.372C308.274 672.872 308.684 673.278 309.189 673.278Z" fill="#DBE8E3"/>
<path d="M350.353 661.498C350.859 661.498 351.268 661.092 351.268 660.591C351.268 660.091 350.859 659.685 350.353 659.685C349.848 659.685 349.439 660.091 349.439 660.591C349.439 661.092 349.848 661.498 350.353 661.498Z" fill="#DBE8E3"/>
<path d="M387.859 646.999C388.364 646.999 388.773 646.593 388.773 646.093C388.773 645.592 388.364 645.187 387.859 645.187C387.353 645.187 386.944 645.592 386.944 646.093C386.944 646.593 387.353 646.999 387.859 646.999Z" fill="#DBE8E3"/>
<path d="M432.682 638.844C433.187 638.844 433.597 638.438 433.597 637.937C433.597 637.437 433.187 637.031 432.682 637.031C432.177 637.031 431.767 637.437 431.767 637.937C431.767 638.438 432.177 638.844 432.682 638.844Z" fill="#DBE8E3"/>
<path d="M36.5905 715.867C37.0957 715.867 37.5052 715.462 37.5052 714.961C37.5052 714.461 37.0957 714.055 36.5905 714.055C36.0853 714.055 35.6757 714.461 35.6757 714.961C35.6757 715.462 36.0853 715.867 36.5905 715.867Z" fill="#DBE8E3"/>
<path d="M88.7318 714.961C89.237 714.961 89.6466 714.555 89.6466 714.055C89.6466 713.555 89.237 713.149 88.7318 713.149C88.2266 713.149 87.8171 713.555 87.8171 714.055C87.8171 714.555 88.2266 714.961 88.7318 714.961Z" fill="#DBE8E3"/>
<path d="M140.873 714.961C141.378 714.961 141.788 714.555 141.788 714.055C141.788 713.555 141.378 713.149 140.873 713.149C140.368 713.149 139.958 713.555 139.958 714.055C139.958 714.555 140.368 714.961 140.873 714.961Z" fill="#DBE8E3"/>
<path d="M193.929 714.961C194.435 714.961 194.844 714.555 194.844 714.055C194.844 713.555 194.435 713.149 193.929 713.149C193.424 713.149 193.015 713.555 193.015 714.055C193.015 714.555 193.424 714.961 193.929 714.961Z" fill="#DBE8E3"/>
<path d="M246.071 714.961C246.576 714.961 246.985 714.555 246.985 714.055C246.985 713.555 246.576 713.149 246.071 713.149C245.566 713.149 245.156 713.555 245.156 714.055C245.156 714.555 245.566 714.961 246.071 714.961Z" fill="#DBE8E3"/>
<path d="M298.212 714.961C298.717 714.961 299.127 714.555 299.127 714.055C299.127 713.555 298.717 713.149 298.212 713.149C297.707 713.149 297.297 713.555 297.297 714.055C297.297 714.555 297.707 714.961 298.212 714.961Z" fill="#DBE8E3"/>
<path d="M346.694 710.43C347.2 710.43 347.609 710.025 347.609 709.524C347.609 709.024 347.2 708.618 346.694 708.618C346.189 708.618 345.78 709.024 345.78 709.524C345.78 710.025 346.189 710.43 346.694 710.43Z" fill="#DBE8E3"/>
<path d="M391.518 703.181C392.023 703.181 392.432 702.775 392.432 702.275C392.432 701.774 392.023 701.369 391.518 701.369C391.012 701.369 390.603 701.774 390.603 702.275C390.603 702.775 391.012 703.181 391.518 703.181Z" fill="#DBE8E3"/>
<path d="M439.085 697.744C439.591 697.744 440 697.338 440 696.838C440 696.337 439.591 695.932 439.085 695.932C438.58 695.932 438.171 696.337 438.171 696.838C438.171 697.338 438.58 697.744 439.085 697.744Z" fill="#DBE8E3"/>
<path d="M25.6133 755.738C26.1185 755.738 26.5281 755.333 26.5281 754.832C26.5281 754.332 26.1185 753.926 25.6133 753.926C25.1081 753.926 24.6985 754.332 24.6985 754.832C24.6985 755.333 25.1081 755.738 25.6133 755.738Z" fill="#DBE8E3"/>
<path d="M73.1809 751.208C73.6861 751.208 74.0956 750.802 74.0956 750.301C74.0956 749.801 73.6861 749.395 73.1809 749.395C72.6757 749.395 72.2662 749.801 72.2662 750.301C72.2662 750.802 72.6757 751.208 73.1809 751.208Z" fill="#DBE8E3"/>
<path d="M122.578 748.489C123.083 748.489 123.493 748.083 123.493 747.583C123.493 747.082 123.083 746.677 122.578 746.677C122.073 746.677 121.663 747.082 121.663 747.583C121.663 748.083 122.073 748.489 122.578 748.489Z" fill="#DBE8E3"/>
<path d="M175.634 748.489C176.139 748.489 176.549 748.083 176.549 747.583C176.549 747.082 176.139 746.677 175.634 746.677C175.129 746.677 174.719 747.082 174.719 747.583C174.719 748.083 175.129 748.489 175.634 748.489Z" fill="#DBE8E3"/>
<path d="M230.52 751.208C231.025 751.208 231.435 750.802 231.435 750.301C231.435 749.801 231.025 749.395 230.52 749.395C230.015 749.395 229.605 749.801 229.605 750.301C229.605 750.802 230.015 751.208 230.52 751.208Z" fill="#DBE8E3"/>
<path d="M287.235 755.738C287.74 755.738 288.15 755.333 288.15 754.832C288.15 754.332 287.74 753.926 287.235 753.926C286.73 753.926 286.32 754.332 286.32 754.832C286.32 755.333 286.73 755.738 287.235 755.738Z" fill="#DBE8E3"/>
<path d="M342.121 757.551C342.626 757.551 343.035 757.145 343.035 756.645C343.035 756.144 342.626 755.738 342.121 755.738C341.615 755.738 341.206 756.144 341.206 756.645C341.206 757.145 341.615 757.551 342.121 757.551Z" fill="#DBE8E3"/>
<path d="M394.262 757.551C394.767 757.551 395.177 757.145 395.177 756.645C395.177 756.144 394.767 755.738 394.262 755.738C393.757 755.738 393.347 756.144 393.347 756.645C393.347 757.145 393.757 757.551 394.262 757.551Z" fill="#DBE8E3"/>
<path d="M19.21 801.953C19.7152 801.953 20.1247 801.547 20.1247 801.046C20.1247 800.546 19.7152 800.14 19.21 800.14C18.7048 800.14 18.2952 800.546 18.2952 801.046C18.2952 801.547 18.7048 801.953 19.21 801.953Z" fill="#DBE8E3"/>
<path d="M64.0333 793.797C64.5385 793.797 64.948 793.391 64.948 792.891C64.948 792.391 64.5385 791.985 64.0333 791.985C63.5281 791.985 63.1185 792.391 63.1185 792.891C63.1185 793.391 63.5281 793.797 64.0333 793.797Z" fill="#DBE8E3"/>
<path d="M111.601 789.266C112.106 789.266 112.516 788.861 112.516 788.36C112.516 787.86 112.106 787.454 111.601 787.454C111.096 787.454 110.686 787.86 110.686 788.36C110.686 788.861 111.096 789.266 111.601 789.266Z" fill="#DBE8E3"/>
<path d="M165.572 790.172C166.077 790.172 166.487 789.767 166.487 789.266C166.487 788.766 166.077 788.36 165.572 788.36C165.067 788.36 164.657 788.766 164.657 789.266C164.657 789.767 165.067 790.172 165.572 790.172Z" fill="#DBE8E3"/>
<path d="M221.372 793.797C221.877 793.797 222.287 793.391 222.287 792.891C222.287 792.391 221.877 791.985 221.372 791.985C220.867 791.985 220.457 792.391 220.457 792.891C220.457 793.391 220.867 793.797 221.372 793.797Z" fill="#DBE8E3"/>
<path d="M278.087 798.328C278.593 798.328 279.002 797.922 279.002 797.422C279.002 796.921 278.593 796.516 278.087 796.516C277.582 796.516 277.173 796.921 277.173 797.422C277.173 797.922 277.582 798.328 278.087 798.328Z" fill="#DBE8E3"/>
<path d="M336.632 803.765C337.137 803.765 337.547 803.359 337.547 802.859C337.547 802.358 337.137 801.953 336.632 801.953C336.127 801.953 335.717 802.358 335.717 802.859C335.717 803.359 336.127 803.765 336.632 803.765Z" fill="#DBE8E3"/>
<path d="M393.347 808.296C393.852 808.296 394.262 807.89 394.262 807.39C394.262 806.889 393.852 806.483 393.347 806.483C392.842 806.483 392.432 806.889 392.432 807.39C392.432 807.89 392.842 808.296 393.347 808.296Z" fill="#DBE8E3"/>
<path d="M22.869 857.228C23.3742 857.228 23.7838 856.823 23.7838 856.322C23.7838 855.822 23.3742 855.416 22.869 855.416C22.3638 855.416 21.9543 855.822 21.9543 856.322C21.9543 856.823 22.3638 857.228 22.869 857.228Z" fill="#DBE8E3"/>
<path d="M64.948 847.261C65.4532 847.261 65.8628 846.855 65.8628 846.354C65.8628 845.854 65.4532 845.448 64.948 845.448C64.4428 845.448 64.0333 845.854 64.0333 846.354C64.0333 846.855 64.4428 847.261 64.948 847.261Z" fill="#DBE8E3"/>
<path d="M112.516 842.73C113.021 842.73 113.43 842.324 113.43 841.824C113.43 841.323 113.021 840.917 112.516 840.917C112.01 840.917 111.601 841.323 111.601 841.824C111.601 842.324 112.01 842.73 112.516 842.73Z" fill="#DBE8E3"/>
<path d="M165.572 842.73C166.077 842.73 166.487 842.324 166.487 841.824C166.487 841.323 166.077 840.917 165.572 840.917C165.067 840.917 164.657 841.323 164.657 841.824C164.657 842.324 165.067 842.73 165.572 842.73Z" fill="#DBE8E3"/>
<path d="M219.543 844.542C220.048 844.542 220.457 844.136 220.457 843.636C220.457 843.135 220.048 842.73 219.543 842.73C219.037 842.73 218.628 843.135 218.628 843.636C218.628 844.136 219.037 844.542 219.543 844.542Z" fill="#DBE8E3"/>
<path d="M273.514 846.354C274.019 846.354 274.428 845.949 274.428 845.448C274.428 844.948 274.019 844.542 273.514 844.542C273.008 844.542 272.599 844.948 272.599 845.448C272.599 845.949 273.008 846.354 273.514 846.354Z" fill="#DBE8E3"/>
<path d="M331.143 850.885C331.649 850.885 332.058 850.48 332.058 849.979C332.058 849.479 331.649 849.073 331.143 849.073C330.638 849.073 330.229 849.479 330.229 849.979C330.229 850.48 330.638 850.885 331.143 850.885Z" fill="#DBE8E3"/>
<path d="M389.688 857.228C390.193 857.228 390.603 856.823 390.603 856.322C390.603 855.822 390.193 855.416 389.688 855.416C389.183 855.416 388.773 855.822 388.773 856.322C388.773 856.823 389.183 857.228 389.688 857.228Z" fill="#DBE8E3"/>
<path d="M30.1871 916.129C30.6923 916.129 31.1019 915.723 31.1019 915.223C31.1019 914.722 30.6923 914.317 30.1871 914.317C29.6819 914.317 29.2723 914.722 29.2723 915.223C29.2723 915.723 29.6819 916.129 30.1871 916.129Z" fill="#DBE8E3"/>
<path d="M72.2662 906.161C72.7714 906.161 73.1809 905.755 73.1809 905.255C73.1809 904.754 72.7714 904.349 72.2662 904.349C71.7609 904.349 71.3513 904.754 71.3513 905.255C71.3513 905.755 71.7609 906.161 72.2662 906.161Z" fill="#DBE8E3"/>
<path d="M118.004 899.818C118.509 899.818 118.919 899.412 118.919 898.912C118.919 898.411 118.509 898.006 118.004 898.006C117.499 898.006 117.089 898.411 117.089 898.912C117.089 899.412 117.499 899.818 118.004 899.818Z" fill="#DBE8E3"/>
<path d="M169.231 898.006C169.736 898.006 170.146 897.6 170.146 897.1C170.146 896.599 169.736 896.193 169.231 896.193C168.726 896.193 168.316 896.599 168.316 897.1C168.316 897.6 168.726 898.006 169.231 898.006Z" fill="#DBE8E3"/>
<path d="M221.372 898.006C221.877 898.006 222.287 897.6 222.287 897.1C222.287 896.599 221.877 896.193 221.372 896.193C220.867 896.193 220.457 896.599 220.457 897.1C220.457 897.6 220.867 898.006 221.372 898.006Z" fill="#DBE8E3"/>
<path d="M272.599 897.1C273.104 897.1 273.514 896.694 273.514 896.193C273.514 895.693 273.104 895.287 272.599 895.287C272.094 895.287 271.684 895.693 271.684 896.193C271.684 896.694 272.094 897.1 272.599 897.1Z" fill="#DBE8E3"/>
<path d="M326.57 898.006C327.075 898.006 327.484 897.6 327.484 897.1C327.484 896.599 327.075 896.193 326.57 896.193C326.064 896.193 325.655 896.599 325.655 897.1C325.655 897.6 326.064 898.006 326.57 898.006Z" fill="#DBE8E3"/>
<path d="M385.114 904.349C385.62 904.349 386.029 903.943 386.029 903.443C386.029 902.942 385.62 902.537 385.114 902.537C384.609 902.537 384.2 902.942 384.2 903.443C384.2 903.943 384.609 904.349 385.114 904.349Z" fill="#DBE8E3"/>
<path d="M122.578 956C123.083 956 123.493 955.594 123.493 955.094C123.493 954.593 123.083 954.188 122.578 954.188C122.073 954.188 121.663 954.593 121.663 955.094C121.663 955.594 122.073 956 122.578 956Z" fill="#DBE8E3"/>
<path d="M171.975 952.375C172.48 952.375 172.89 951.97 172.89 951.469C172.89 950.969 172.48 950.563 171.975 950.563C171.47 950.563 171.06 950.969 171.06 951.469C171.06 951.97 171.47 952.375 171.975 952.375Z" fill="#DBE8E3"/>
<path d="M221.372 949.657C221.877 949.657 222.287 949.251 222.287 948.751C222.287 948.25 221.877 947.845 221.372 947.845C220.867 947.845 220.457 948.25 220.457 948.751C220.457 949.251 220.867 949.657 221.372 949.657Z" fill="#DBE8E3"/>
<path d="M270.769 946.938C271.274 946.938 271.684 946.533 271.684 946.032C271.684 945.532 271.274 945.126 270.769 945.126C270.264 945.126 269.854 945.532 269.854 946.032C269.854 946.533 270.264 946.938 270.769 946.938Z" fill="#DBE8E3"/>
<path d="M322.911 946.032C323.416 946.032 323.825 945.626 323.825 945.126C323.825 944.626 323.416 944.22 322.911 944.22C322.405 944.22 321.996 944.626 321.996 945.126C321.996 945.626 322.405 946.032 322.911 946.032Z" fill="#DBE8E3"/>
<path d="M380.541 951.469C381.046 951.469 381.455 951.063 381.455 950.563C381.455 950.062 381.046 949.657 380.541 949.657C380.035 949.657 379.626 950.062 379.626 950.563C379.626 951.063 380.035 951.469 380.541 951.469Z" fill="#DBE8E3"/>
</g>
</svg>
