<svg width="20" height="20" viewBox="0 0 20 20" fill="none" xmlns="http://www.w3.org/2000/svg">
<path d="M9.99991 7.50384C11.8408 7.50384 13.3332 8.99624 13.3332 10.8372C13.3332 12.6782 11.8408 14.1705 9.99991 14.1705C8.15894 14.1705 6.66656 12.6782 6.66656 10.8372C6.66656 8.99624 8.15894 7.50384 9.99991 7.50384ZM9.99991 8.75383C8.84933 8.75383 7.91656 9.68658 7.91656 10.8372C7.91656 11.9877 8.84933 12.9205 9.99991 12.9205C11.1505 12.9205 12.0832 11.9877 12.0832 10.8372C12.0832 9.68658 11.1505 8.75383 9.99991 8.75383ZM9.99991 4.58333C13.8445 4.58333 17.1633 7.20834 18.0842 10.887C18.168 11.2218 17.9645 11.5612 17.6297 11.6451C17.2947 11.7288 16.9554 11.5254 16.8716 11.1905C16.0892 8.06496 13.2677 5.83333 9.99991 5.83333C6.73067 5.83333 3.90831 8.06688 3.12727 11.1943C3.04364 11.5292 2.70436 11.7328 2.36946 11.6492C2.03457 11.5656 1.83089 11.2263 1.91452 10.8914C2.83376 7.2106 6.15363 4.58333 9.99991 4.58333Z" fill="#B1CDC1"/>
</svg>
