<svg width="20" height="20" viewBox="0 0 20 20" fill="none" xmlns="http://www.w3.org/2000/svg">
<path d="M1.84973 1.84972C1.62784 2.07161 1.60767 2.41883 1.78921 2.6635L1.84973 2.7336L5.21187 6.09575C3.61021 7.2203 2.41315 8.89991 1.91574 10.887C1.83192 11.2218 2.03542 11.5612 2.37026 11.6451C2.70511 11.7288 3.04451 11.5254 3.12833 11.1905C3.56956 9.42791 4.65927 7.94955 6.11181 6.99543L7.61983 8.50358C7.03024 9.10483 6.66667 9.92858 6.66667 10.8372C6.66667 12.6782 8.15905 14.1705 10 14.1705C10.9087 14.1705 11.7323 13.8069 12.3337 13.2173L17.2664 18.1502C17.5105 18.3943 17.9062 18.3943 18.1503 18.1502C18.3722 17.9284 18.3923 17.5812 18.2108 17.3365L18.1503 17.2664L13.0557 12.1712L13.0567 12.17L12.0566 11.1717L9.665 8.78066L9.66667 8.78L7.26565 6.38151L7.26667 6.38L6.32227 5.4379L2.73361 1.84972C2.48954 1.60565 2.09381 1.60565 1.84973 1.84972ZM8.50342 9.38791L11.4493 12.3338C11.0743 12.697 10.5633 12.9205 10 12.9205C8.84942 12.9205 7.91667 11.9877 7.91667 10.8372C7.91667 10.2739 8.1402 9.76283 8.50342 9.38791ZM10 4.58333C9.16642 4.58333 8.35759 4.70672 7.59258 4.9375L8.62342 5.96765C9.06992 5.87943 9.53034 5.83333 10 5.83333C13.2693 5.83333 16.0916 8.06688 16.8726 11.1943C16.9563 11.5292 17.2955 11.7328 17.6304 11.6492C17.9653 11.5656 18.169 11.2263 18.0853 10.8914C17.1662 7.2106 13.8463 4.58333 10 4.58333ZM10.1623 7.50773L13.33 10.675C13.2452 8.96091 11.8727 7.5897 10.1623 7.50773Z" fill="#B1CDC1"/>
</svg>
