<svg width="768" height="354" viewBox="0 0 768 354" fill="none" xmlns="http://www.w3.org/2000/svg">
<path d="M7.75 232.5H24.25C24.25 239.5 26.75 245.083 31.75 249.25C36.75 253.25 43.4167 255.25 51.75 255.25C61.0833 255.25 68.3333 253.417 73.5 249.75C78.8333 245.917 81.5 240.75 81.5 234.25C81.5 229.25 80.0833 225.25 77.25 222.25C74.4167 219.25 69.4167 216.833 62.25 215L41.5 209.75C31 207.083 23.1667 203 18 197.5C12.8333 192 10.25 185.167 10.25 177C10.25 170 12.0833 163.917 15.75 158.75C19.4167 153.417 24.5 149.333 31 146.5C37.6667 143.667 45.3333 142.25 54 142.25C62.5 142.25 69.9167 143.75 76.25 146.75C82.5833 149.75 87.5 154 91 159.5C94.6667 164.833 96.5833 171.25 96.75 178.75H80C79.8333 171.583 77.4167 166.083 72.75 162.25C68.0833 158.417 61.6667 156.5 53.5 156.5C45 156.5 38.4167 158.25 33.75 161.75C29.25 165.25 27 170.25 27 176.75C27 186.083 33.5833 192.417 46.75 195.75L67.5 201C78 203.667 85.6667 207.583 90.5 212.75C95.5 217.917 98 224.833 98 233.5C98 240.667 96.0833 247 92.25 252.5C88.4167 258 83 262.25 76 265.25C69.1667 268.083 61.1667 269.5 52 269.5C38.5 269.5 27.75 266.167 19.75 259.5C11.75 252.667 7.75 243.667 7.75 232.5ZM126.398 319.25V145.5H141.398L143.148 170C147.482 160.667 153.648 153.75 161.648 149.25C169.815 144.583 178.898 142.25 188.898 142.25C200.565 142.25 210.565 145 218.898 150.5C227.232 156 233.648 163.5 238.148 173C242.648 182.5 244.898 193.333 244.898 205.5C244.898 217.667 242.648 228.583 238.148 238.25C233.815 247.917 227.482 255.583 219.148 261.25C210.982 266.75 200.898 269.5 188.898 269.5C178.565 269.5 169.482 267.333 161.648 263C153.815 258.5 147.815 251.917 143.648 243.25V319.25H126.398ZM143.898 206C143.898 215.167 145.565 223.417 148.898 230.75C152.232 237.917 156.982 243.583 163.148 247.75C169.482 251.917 177.065 254 185.898 254C194.732 254 202.232 251.917 208.398 247.75C214.565 243.583 219.232 237.917 222.398 230.75C225.732 223.417 227.398 215.167 227.398 206C227.398 196.667 225.732 188.417 222.398 181.25C219.232 173.917 214.565 168.25 208.398 164.25C202.232 160.083 194.732 158 185.898 158C177.065 158 169.482 160.083 163.148 164.25C156.982 168.25 152.232 173.917 148.898 181.25C145.565 188.417 143.898 196.667 143.898 206ZM290.395 266.5H273.145V84.25H290.395V266.5ZM327.082 266.5V145.5H344.332V266.5H327.082ZM335.582 112.25C332.082 112.25 329.082 111 326.582 108.5C324.082 106 322.832 103 322.832 99.5C322.832 96 324.082 93 326.582 90.5C329.082 87.8333 332.082 86.5 335.582 86.5C339.082 86.5 342.082 87.8333 344.582 90.5C347.249 93 348.582 96 348.582 99.5C348.582 103 347.249 106 344.582 108.5C342.082 111 339.082 112.25 335.582 112.25Z" fill="#DBE8E3"/>
<path d="M395 354H438.613L486.177 85.814L522.174 85.7781L474.603 354H518.216L565.795 85.7346L609.415 85.6911L617.014 42.8457L573.383 42.9503L581 0.00020504H537.387L529.788 42.8457L493.78 42.9503L501.397 0.00020504H457.784L450.166 42.9503H406.597L399.023 85.9009L442.557 85.8575L395 354Z" fill="#00EE87"/>
<path d="M669.514 145.5L715.014 269L702.264 279L651.264 145.5H669.514ZM654.764 319.25V305H668.014C671.514 305 674.931 304.667 678.264 304C681.764 303.5 684.931 302.083 687.764 299.75C690.764 297.417 693.181 293.5 695.014 288L746.764 145.5H764.514L709.014 294.25C705.514 303.75 700.764 310.583 694.764 314.75C688.931 318.917 681.681 321 673.014 321C669.514 321 666.264 320.833 663.264 320.5C660.264 320.333 657.431 319.917 654.764 319.25Z" fill="#DBE8E3"/>
</svg>
